<?xml version="1.0" standalone="no"?>
<!DOCTYPE svg PUBLIC "-//W3C//DTD SVG 20010904//EN"
 "http://www.w3.org/TR/2001/REC-SVG-20010904/DTD/svg10.dtd">
<svg version="1.0" xmlns="http://www.w3.org/2000/svg"
 width="800.000000pt" height="800.000000pt" viewBox="0 0 800.000000 800.000000"
 preserveAspectRatio="xMidYMid meet">
<metadata>
Created by potrace 1.11, written by Peter Selinger 2001-2013
</metadata>
<g transform="translate(0.000000,800.000000) scale(0.100000,-0.100000)"
fill="#000000" stroke="none">
<path d="M5319 7855 c-163 -32 -339 -145 -570 -362 l-66 -62 25 52 c19 39 27
73 30 137 l4 85 -23 -21 c-13 -12 -102 -92 -198 -178 -96 -86 -176 -154 -178
-152 -7 7 39 131 69 186 17 30 48 79 70 108 l39 52 -53 0 c-61 0 -231 -55
-394 -128 -202 -91 -294 -123 -495 -173 -296 -73 -462 -143 -596 -252 -133
-107 -212 -256 -213 -399 0 -47 -1 -48 -31 -48 -18 0 -76 20 -130 45 -160 73
-219 77 -273 16 -19 -21 -19 -21 13 -21 17 0 48 -9 69 -19 41 -22 179 -158
147 -146 -32 12 -152 18 -158 9 -2 -5 33 -43 79 -84 l85 -75 -43 -20 c-58 -26
-172 -27 -209 -2 l-27 18 -6 -44 c-7 -42 -36 -99 -145 -276 -28 -47 -64 -121
-79 -165 -26 -78 -27 -89 -26 -281 0 -209 8 -286 65 -640 45 -279 160 -800
190 -856 5 -10 33 -20 76 -28 37 -6 80 -14 94 -17 l25 -6 -4 324 c-5 341 -5
341 48 678 34 220 78 415 122 539 191 545 516 724 1054 581 148 -40 276 -57
534 -70 216 -11 247 -10 519 22 473 54 886 -236 1011 -711 46 -172 47 -291 5
-626 -8 -66 -15 -156 -15 -201 0 -108 -17 -314 -40 -511 -11 -89 -20 -170 -20
-179 0 -14 9 -15 68 -10 151 15 136 5 176 114 152 416 306 959 362 1277 19
110 29 434 19 620 l-7 137 -34 -33 -34 -33 0 67 0 66 -36 -21 -35 -21 16 39
c33 80 58 116 215 306 l25 31 -45 -8 c-83 -14 -151 -35 -227 -70 -42 -19 -78
-33 -80 -31 -6 6 62 159 99 224 16 28 27 52 23 52 -11 0 -90 -43 -132 -72
l-43 -29 0 26 c0 46 -41 148 -87 217 -24 37 -82 102 -128 144 -46 42 -95 94
-110 115 -24 36 -24 41 -11 67 8 16 34 53 57 82 l42 53 -44 -7 c-61 -10 -139
-47 -186 -90 -22 -20 -43 -36 -47 -36 -3 0 6 30 20 68 58 156 158 277 276 332
l63 30 -43 0 c-168 0 -401 -100 -577 -247 -87 -73 -89 -69 -23 59 41 80 131
187 192 229 20 13 36 28 36 33 0 17 -116 -5 -178 -34 l-62 -29 30 44 c45 66
147 165 219 213 l63 42 -73 -1 c-41 0 -104 -7 -140 -14z"/>
<path d="M2952 5055 c-125 -29 -262 -98 -325 -163 l-32 -34 41 20 c78 39 194
62 316 62 133 0 220 -14 503 -81 221 -53 369 -79 448 -79 94 0 127 79 58 141
-33 31 -142 59 -421 109 -212 38 -480 50 -588 25z"/>
<path d="M4849 4970 c-123 -8 -450 -43 -507 -56 -61 -13 -84 -93 -38 -139 16
-16 40 -25 80 -30 65 -8 87 -6 436 40 485 65 640 56 803 -45 l48 -30 -20 29
c-26 36 -129 114 -191 146 -141 71 -349 100 -611 85z"/>
<path d="M2810 4620 c0 -7 18 -50 39 -96 73 -156 161 -217 346 -244 102 -14
299 -12 378 5 62 13 187 61 187 73 0 15 -81 110 -122 143 -59 47 -118 74 -218
101 -64 18 -114 21 -342 25 -207 4 -268 3 -268 -7z m360 -35 c0 -2 -9 -19 -20
-37 -41 -67 -20 -177 43 -231 22 -19 22 -19 -12 -13 -104 18 -219 111 -279
224 l-33 62 150 0 c83 0 151 -2 151 -5z m272 -46 c22 -12 23 -48 2 -56 -18 -7
-60 22 -83 56 l-15 24 39 -7 c22 -4 48 -12 57 -17z m127 -56 c46 -27 121 -90
121 -103 0 -22 -181 -80 -252 -80 l-32 0 26 28 c43 45 60 89 56 143 -3 45 -1
48 17 43 11 -3 40 -17 64 -31z m-351 -105 c19 -19 15 -48 -8 -48 -21 0 -45 34
-35 50 8 14 28 13 43 -2z"/>
<path d="M4820 4529 c-137 -16 -236 -63 -322 -152 -45 -45 -48 -51 -33 -67 23
-26 112 -68 190 -90 93 -27 309 -43 406 -30 122 15 185 45 250 117 37 41 115
171 107 178 -8 8 -312 43 -418 48 -58 3 -139 1 -180 -4z m245 -70 c34 -65 -22
-83 -74 -24 -17 20 -31 40 -31 45 0 6 20 10 45 10 40 0 46 -3 60 -31z m182 15
c113 -9 115 -12 69 -79 -67 -96 -202 -185 -282 -185 l-26 0 30 25 c59 50 79
144 47 222 l-15 36 47 -6 c27 -4 85 -10 130 -13z m-497 -40 c-23 -60 -4 -141
45 -190 l27 -27 -37 7 c-98 19 -265 90 -265 114 0 13 95 72 156 97 77 32 86
32 74 -1z m94 -156 c8 -13 7 -21 -2 -30 -17 -17 -46 1 -50 31 -3 18 1 22 19
19 12 -2 27 -11 33 -20z"/>
<path d="M3635 3009 c-4 -6 -5 -12 -2 -15 2 -3 7 2 10 11 7 17 1 20 -8 4z"/>
<path d="M3332 2960 c0 -14 2 -19 5 -12 2 6 2 18 0 25 -3 6 -5 1 -5 -13z"/>
<path d="M4330 2965 c0 -5 5 -17 10 -25 5 -8 10 -10 10 -5 0 6 -5 17 -10 25
-5 8 -10 11 -10 5z"/>
<path d="M4732 2895 c0 -16 2 -22 5 -12 2 9 2 23 0 30 -3 6 -5 -1 -5 -18z"/>
<path d="M4601 2894 c0 -11 3 -14 6 -6 3 7 2 16 -1 19 -3 4 -6 -2 -5 -13z"/>
<path d="M4852 2850 c0 -14 2 -19 5 -12 2 6 2 18 0 25 -3 6 -5 1 -5 -13z"/>
<path d="M3132 2770 c0 -14 2 -19 5 -12 2 6 2 18 0 25 -3 6 -5 1 -5 -13z"/>
<path d="M3002 2670 c0 -19 2 -27 5 -17 2 9 2 25 0 35 -3 9 -5 1 -5 -18z"/>
<path d="M5032 2560 c0 -14 2 -19 5 -12 2 6 2 18 0 25 -3 6 -5 1 -5 -13z"/>
<path d="M4942 2495 c0 -16 2 -22 5 -12 2 9 2 23 0 30 -3 6 -5 -1 -5 -18z"/>
<path d="M3401 2434 c0 -11 3 -14 6 -6 3 7 2 16 -1 19 -3 4 -6 -2 -5 -13z"/>
<path d="M4050 2395 c-7 -9 -11 -18 -8 -20 3 -3 11 1 18 10 7 9 11 18 8 20 -3
3 -11 -1 -18 -10z"/>
<path d="M4612 2385 c0 -16 2 -22 5 -12 2 9 2 23 0 30 -3 6 -5 -1 -5 -18z"/>
<path d="M4521 2304 c0 -11 3 -14 6 -6 3 7 2 16 -1 19 -3 4 -6 -2 -5 -13z"/>
<path d="M4391 2234 c0 -11 3 -14 6 -6 3 7 2 16 -1 19 -3 4 -6 -2 -5 -13z"/>
<path d="M3652 2130 c0 -14 2 -19 5 -12 2 6 2 18 0 25 -3 6 -5 1 -5 -13z"/>
<path d="M4091 2104 c0 -11 3 -14 6 -6 3 7 2 16 -1 19 -3 4 -6 -2 -5 -13z"/>
<path d="M4332 2100 c0 -14 2 -19 5 -12 2 6 2 18 0 25 -3 6 -5 1 -5 -13z"/>
<path d="M4066 1984 c-23 -23 -20 -30 4 -9 11 10 20 20 20 22 0 7 -9 2 -24
-13z"/>
<path d="M3910 1986 c0 -2 8 -10 18 -17 15 -13 16 -12 3 4 -13 16 -21 21 -21
13z"/>
<path d="M4165 1979 c-4 -6 -5 -12 -2 -15 2 -3 7 2 10 11 7 17 1 20 -8 4z"/>
<path d="M4259 1963 c-13 -16 -12 -17 4 -4 9 7 17 15 17 17 0 8 -8 3 -21 -13z"/>
<path d="M4985 1864 c-11 -2 -44 -10 -74 -16 l-54 -12 7 -110 c3 -61 17 -183
30 -271 l24 -160 -49 -93 c-127 -240 -266 -408 -532 -644 -182 -162 -263 -253
-312 -350 l-33 -67 -34 72 c-47 98 -115 176 -261 301 -184 156 -306 291 -435
481 -87 129 -172 292 -172 330 0 18 11 122 25 231 14 109 23 216 19 236 -5 36
-7 37 -60 44 -29 3 -84 5 -121 2 -89 -5 -182 -49 -323 -153 -213 -156 -296
-193 -467 -205 -184 -12 -259 -62 -284 -190 l-11 -59 -47 -10 c-25 -6 -109
-22 -185 -36 -235 -44 -407 -109 -568 -213 -85 -56 -234 -199 -295 -282 -60
-82 -136 -223 -178 -329 -36 -90 -95 -303 -95 -342 0 -19 72 -19 3500 -19
3050 0 3500 2 3500 14 0 8 -9 63 -20 121 -85 440 -307 735 -684 910 -157 73
-337 124 -606 173 l-95 17 -6 52 c-13 104 -68 176 -159 208 -23 8 -97 19 -165
25 -188 15 -258 47 -407 188 -47 44 -104 92 -127 106 -67 43 -173 64 -246 50z"/>
</g>
</svg>
